<?xml version="1.0" encoding="UTF-8"?>
<svg width="256px" height="256px" viewBox="0 0 256 256" version="1.1" xmlns="http://www.w3.org/2000/svg">
    <g fill="#6C47FF">
        <path d="M209.6,46.4 L209.6,209.6 L46.4,209.6 L46.4,46.4 L209.6,46.4 M232,24 L24,24 L24,232 L232,232 L232,24 L232,24 Z" />
        <path d="M128,78.4 C100.8,78.4 78.4,100.8 78.4,128 C78.4,155.2 100.8,177.6 128,177.6 C155.2,177.6 177.6,155.2 177.6,128 C177.6,100.8 155.2,78.4 128,78.4 Z M128,153.6 C113.6,153.6 102.4,142.4 102.4,128 C102.4,113.6 113.6,102.4 128,102.4 C142.4,102.4 153.6,113.6 153.6,128 C153.6,142.4 142.4,153.6 128,153.6 Z" />
    </g>
</svg> 