<?xml version="1.0" encoding="UTF-8"?>
<svg width="256px" height="256px" viewBox="0 0 256 256" version="1.1" xmlns="http://www.w3.org/2000/svg">
    <g fill="#2496ED">
        <path d="M128.032124,146.666667 L98.2991124,146.666667 L98.2991124,116.933454 L128.032124,116.933454 L128.032124,146.666667 Z M162.898348,116.933454 L133.165336,116.933454 L133.165336,87.2002411 L162.898348,87.2002411 L162.898348,116.933454 Z M128.032124,116.933454 L98.2991124,116.933454 L98.2991124,87.2002411 L128.032124,87.2002411 L128.032124,116.933454 Z M93.1659003,116.933454 L63.4328883,116.933454 L63.4328883,87.2002411 L93.1659003,87.2002411 L93.1659003,116.933454 Z M128.032124,87.2002411 L98.2991124,87.2002411 L98.2991124,57.4670291 L128.032124,57.4670291 L128.032124,87.2002411 Z M239.631172,102.066787 C239.631172,102.066787 228.898136,91.3337507 210.898348,96.4669627 C208.631736,82.0669627 194.231736,74.9337507 194.231736,74.9337507 C194.231736,74.9337507 181.098348,98.7335747 201.36496,119.200066 C196.231748,123.066787 186.231748,126.933508 171.831748,126.933508 L18.7659003,126.933508 C16.4992883,134.066787 15.4328883,141.333454 15.4328883,148.933454 C15.4328883,206.400066 62.3664883,253.333666 119.832488,253.333666 C193.165336,253.333666 239.631172,197.333666 239.631172,126.933508 C239.631172,120.800229 239.631172,102.066787 239.631172,102.066787 Z" />
    </g>
</svg> 