<?xml version="1.0" encoding="UTF-8"?>
<svg width="256px" height="256px" viewBox="0 0 256 256" version="1.1" xmlns="http://www.w3.org/2000/svg">
    <g fill="#EE4C2C">
        <path d="M218.281937,157.94805 C218.281937,148.878656 210.914557,141.511276 201.845163,141.511276 C192.775769,141.511276 185.408389,148.878656 185.408389,157.94805 C185.408389,167.017444 192.775769,174.384824 201.845163,174.384824 C210.914557,174.384824 218.281937,167.017444 218.281937,157.94805" />
        <path d="M127.352978,75.8753583 C156.956159,46.2721774 184.085729,19.1426077 193.465353,9.76298334 C195.926556,7.30178068 195.926556,3.28931057 193.465353,0.828107913 C190.993745,-1.63309474 186.992681,-1.63309474 184.521073,0.828107913 C175.141449,10.2077323 148.011879,37.337302 118.408698,66.9404829 C88.8055172,96.5436638 61.6759475,123.673234 52.2963231,133.052858 C49.8351204,135.51406 49.8351204,139.526531 52.2963231,141.987733 C54.7679309,144.459341 58.7689959,144.459341 61.2406037,141.987733 C70.6202282,132.608109 97.7497979,105.478539 127.352978,75.8753583 Z" />
    </g>
</svg> 